HIERARCHY
ROOT Hips
{
    OFFSET 0.000000 0.000000 0.000000
    CHANNELS 6 Xposition Yposition Zposition Zrotation Xrotation Yrotation
    JOINT Spine
    {
        OFFSET -0.000000 7.305679 0.000000
        CHANNELS 3 Zrotation Xrotation Yrotation
        JOINT Spine1
        {
            OFFSET -0.000000 20.356625 0.000000
            CHANNELS 3 Zrotation Xrotation Yrotation
            JOINT Neck
            {
                OFFSET -0.000000 22.138498 0.000000
                CHANNELS 3 Zrotation Xrotation Yrotation
                JOINT Head
                {
                    OFFSET -0.000000 13.809516 1.781873
                    CHANNELS 3 Zrotation Xrotation Yrotation
                    End Site
                    {
                        OFFSET -0.000000 17.818729 0.000000
                    }
                }
            }
            JOINT LeftShoulder
            {
                OFFSET 3.599131 17.989975 0.023592
                CHANNELS 3 Zrotation Xrotation Yrotation
                JOINT LeftArm
                {
                    OFFSET 12.560995 0.000000 0.000000
                    CHANNELS 3 Zrotation Xrotation Yrotation
                    JOINT LeftForeArm
                    {
                        OFFSET 22.903347 0.000000 0.000000
                        CHANNELS 3 Zrotation Xrotation Yrotation
                        JOINT LeftHand
                        {
                            OFFSET 21.865294 0.000000 0.000000
                            CHANNELS 3 Zrotation Xrotation Yrotation
                            JOINT LeftHandThumb1
                            {
                                OFFSET 1.853706 -2.106484 2.949078
                                CHANNELS 3 Zrotation Xrotation Yrotation
                                JOINT LeftHandThumb2
                                {
                                    OFFSET 2.049154 0.000000 1.336405
                                    CHANNELS 3 Zrotation Xrotation Yrotation
                                    JOINT LeftHandThumb3
                                    {
                                        OFFSET 2.672809 0.000000 0.000000
                                        CHANNELS 3 Zrotation Xrotation Yrotation
                                        End Site
                                        {
                                            OFFSET 2.381303 0.000000 0.000000
                                        }
                                    }
                                }
                            }
                            JOINT LeftHandIndex1
                            {
                                OFFSET 7.583345 0.000000 2.949078
                                CHANNELS 3 Zrotation Xrotation Yrotation
                                JOINT LeftHandIndex2
                                {
                                    OFFSET 4.454682 0.000000 0.000000
                                    CHANNELS 3 Zrotation Xrotation Yrotation
                                    JOINT LeftHandIndex3
                                    {
                                        OFFSET 2.227341 0.000000 0.000000
                                        CHANNELS 3 Zrotation Xrotation Yrotation
                                        End Site
                                        {
                                            OFFSET 1.984419 0.000000 0.000000
                                        }
                                    }
                                }
                            }
                            JOINT LeftHandMiddle1
                            {
                                OFFSET 7.583345 0.000000 0.977409
                                CHANNELS 3 Zrotation Xrotation Yrotation
                                JOINT LeftHandMiddle2
                                {
                                    OFFSET 4.900151 0.000000 0.000000
                                    CHANNELS 3 Zrotation Xrotation Yrotation
                                    JOINT LeftHandMiddle3
                                    {
                                        OFFSET 2.672809 0.000000 0.000000
                                        CHANNELS 3 Zrotation Xrotation Yrotation
                                        End Site
                                        {
                                            OFFSET 2.381303 0.000000 0.000000
                                        }
                                    }
                                }
                            }
                            JOINT LeftHandRing1
                            {
                                OFFSET 7.162047 0.000000 -0.977409
                                CHANNELS 3 Zrotation Xrotation Yrotation
                                JOINT LeftHandRing2
                                {
                                    OFFSET 4.454682 0.000000 0.000000
                                    CHANNELS 3 Zrotation Xrotation Yrotation
                                    JOINT LeftHandRing3
                                    {
                                        OFFSET 2.227341 0.000000 0.000000
                                        CHANNELS 3 Zrotation Xrotation Yrotation
                                        End Site
                                        {
                                            OFFSET 1.984419 0.000000 0.000000
                                        }
                                    }
                                }
                            }
                            JOINT LeftHandPinky1
                            {
                                OFFSET 6.740750 0.000000 -2.949078
                                CHANNELS 3 Zrotation Xrotation Yrotation
                                JOINT LeftHandPinky2
                                {
                                    OFFSET 3.563746 0.000000 0.000000
                                    CHANNELS 3 Zrotation Xrotation Yrotation
                                    JOINT LeftHandPinky3
                                    {
                                        OFFSET 1.781873 0.000000 0.000000
                                        CHANNELS 3 Zrotation Xrotation Yrotation
                                        End Site
                                        {
                                            OFFSET 1.587536 0.000000 0.000000
                                        }
                                    }
                                }
                            }
                        }
                    }
                }
            }
            JOINT RightShoulder
            {
                OFFSET -3.506995 17.989975 0.023592
                CHANNELS 3 Zrotation Xrotation Yrotation
                JOINT RightArm
                {
                    OFFSET -12.560995 0.000000 0.000000
                    CHANNELS 3 Zrotation Xrotation Yrotation
                    JOINT RightForeArm
                    {
                        OFFSET -22.903347 0.000000 0.000000
                        CHANNELS 3 Zrotation Xrotation Yrotation
                        JOINT RightHand
                        {
                            OFFSET -21.865294 0.000000 0.000000
                            CHANNELS 3 Zrotation Xrotation Yrotation
                            JOINT RightHandThumb1
                            {
                                OFFSET -1.853706 -2.106484 2.949078
                                CHANNELS 3 Zrotation Xrotation Yrotation
                                JOINT RightHandThumb2
                                {
                                    OFFSET -2.049154 0.000000 1.336405
                                    CHANNELS 3 Zrotation Xrotation Yrotation
                                    JOINT RightHandThumb3
                                    {
                                        OFFSET -2.672809 0.000000 0.000000
                                        CHANNELS 3 Zrotation Xrotation Yrotation
                                        End Site
                                        {
                                            OFFSET -2.381303 0.000000 0.000000
                                        }
                                    }
                                }
                            }
                            JOINT RightHandIndex1
                            {
                                OFFSET -7.583345 0.000000 2.949078
                                CHANNELS 3 Zrotation Xrotation Yrotation
                                JOINT RightHandIndex2
                                {
                                    OFFSET -4.454682 0.000000 0.000000
                                    CHANNELS 3 Zrotation Xrotation Yrotation
                                    JOINT RightHandIndex3
                                    {
                                        OFFSET -2.227341 0.000000 0.000000
                                        CHANNELS 3 Zrotation Xrotation Yrotation
                                        End Site
                                        {
                                            OFFSET -1.984419 0.000000 0.000000
                                        }
                                    }
                                }
                            }
                            JOINT RightHandMiddle1
                            {
                                OFFSET -7.583345 0.000000 0.977409
                                CHANNELS 3 Zrotation Xrotation Yrotation
                                JOINT RightHandMiddle2
                                {
                                    OFFSET -4.900151 0.000000 0.000000
                                    CHANNELS 3 Zrotation Xrotation Yrotation
                                    JOINT RightHandMiddle3
                                    {
                                        OFFSET -2.672809 0.000000 0.000000
                                        CHANNELS 3 Zrotation Xrotation Yrotation
                                        End Site
                                        {
                                            OFFSET -2.381303 0.000000 0.000000
                                        }
                                    }
                                }
                            }
                            JOINT RightHandRing1
                            {
                                OFFSET -7.162047 0.000000 -0.977409
                                CHANNELS 3 Zrotation Xrotation Yrotation
                                JOINT RightHandRing2
                                {
                                    OFFSET -4.454682 0.000000 0.000000
                                    CHANNELS 3 Zrotation Xrotation Yrotation
                                    JOINT RightHandRing3
                                    {
                                        OFFSET -2.227341 0.000000 0.000000
                                        CHANNELS 3 Zrotation Xrotation Yrotation
                                        End Site
                                        {
                                            OFFSET -1.984419 0.000000 0.000000
                                        }
                                    }
                                }
                            }
                            JOINT RightHandPinky1
                            {
                                OFFSET -6.740750 0.000000 -2.949078
                                CHANNELS 3 Zrotation Xrotation Yrotation
                                JOINT RightHandPinky2
                                {
                                    OFFSET -3.563746 0.000000 0.000000
                                    CHANNELS 3 Zrotation Xrotation Yrotation
                                    JOINT RightHandPinky3
                                    {
                                        OFFSET -1.781873 0.000000 0.000000
                                        CHANNELS 3 Zrotation Xrotation Yrotation
                                        End Site
                                        {
                                            OFFSET -1.587536 0.000000 0.000000
                                        }
                                    }
                                }
                            }
                        }
                    }
                }
            }
        }
    }
    JOINT LeftUpLeg
    {
        OFFSET 8.909365 0.000000 0.000000
        CHANNELS 3 Zrotation Xrotation Yrotation
        JOINT LeftLeg
        {
            OFFSET -0.000000 -38.765560 0.000000
            CHANNELS 3 Zrotation Xrotation Yrotation
            JOINT LeftFoot
            {
                OFFSET -0.000000 -35.244961 0.000000
                CHANNELS 3 Zrotation Xrotation Yrotation
                JOINT LeftToeBase
                {
                    OFFSET -0.000000 -5.791087 13.364048
                    CHANNELS 3 Zrotation Xrotation Yrotation
                    End Site
                    {
                        OFFSET -0.000000 0.000000 3.563746
                    }
                }
            }
        }
    }
    JOINT RightUpLeg
    {
        OFFSET -8.909365 0.000000 0.000000
        CHANNELS 3 Zrotation Xrotation Yrotation
        JOINT RightLeg
        {
            OFFSET -0.000000 -38.765560 0.000000
            CHANNELS 3 Zrotation Xrotation Yrotation
            JOINT RightFoot
            {
                OFFSET -0.000000 -35.244961 0.000000
                CHANNELS 3 Zrotation Xrotation Yrotation
                JOINT RightToeBase
                {
                    OFFSET -0.000000 -5.791087 13.364048
                    CHANNELS 3 Zrotation Xrotation Yrotation
                    End Site
                    {
                        OFFSET -0.000000 0.000000 3.563746
                    }
                }
            }
        }
    }
}
MOTION
Frames:    5
Frame Time:    0.008333
0.713695    81.458549    116.443336    -0.112634    -0.336907    0.083266    -0.005540    -0.356774    -0.031428    -1.334477    5.826273    0.057972    2.280742    -2.960350    2.260565    2.418250    -1.170888    2.292518    2.616186    2.546957    -11.538595    -85.321190    35.306885    -3.406557    11.701244    -2.556171    -2.444736    -3.670573    -28.401772    3.661838    -1.280258    2.472162    1.430011    -0.000000    0.000000    1.988604    -0.000000    0.000000    3.977209    -11.602015    2.774945    -13.268394    -23.849653    0.000000    0.000000    -11.924828    0.000000    0.000000    -20.046694    0.133752    -4.361611    -40.083527    0.000000    0.000000    -20.041763    0.000000    0.000000    -27.997705    -3.751954    4.078840    -56.317394    0.000000    0.000000    -28.158691    0.000000    0.000000    -35.569263    -8.893973    12.199417    -73.043190    0.000000    0.000000    -36.521595    0.000000    0.000000    -4.785485    -2.714949    1.779602    98.989395    56.424778    -11.240721    -10.885230    -33.372734    1.238945    7.917344    -39.153782    -1.110503    0.070446    -0.429097    0.720773    0.000000    0.000000    0.000000    0.000000    0.000000    0.000000    11.114448    0.000000    -0.000000    22.228893    0.000000    -0.000000    11.114448    0.000000    -0.000000    18.631115    -1.009367    -2.042031    37.314358    0.000000    -0.000000    18.657177    0.000000    -0.000000    26.111473    -2.276590    -3.935576    52.399822    0.000000    -0.000000    26.199905    0.000000    -0.000000    33.780609    -3.827827    -5.699002    67.942413    0.000000    -0.000000    33.971203    0.000000    -0.000000    -3.059878    -2.436563    1.604669    1.361255    10.322181    5.801976    -0.664605    -6.967437    -6.382559    0.170086    0.517604    -0.356270    -0.814201    -3.404794    -0.418477    -0.937576    10.341861    -2.329097    2.507200    -6.989078    4.486904    -0.133139    -1.477816    0.059966    
0.733891    81.455681    116.457924    -0.117319    -0.353424    0.135792    0.012072    -0.345410    -0.052759    -1.346751    5.813839    0.047908    2.296018    -2.955463    2.241839    2.429311    -1.122710    2.272594    2.612877    2.525060    -11.558867    -85.458832    35.379459    -3.383261    11.720118    -2.593372    -2.371806    -3.567325    -28.406202    3.746917    -1.328225    2.409745    1.291522    -0.000000    0.000000    1.840599    -0.000000    0.000000    3.681199    -11.616117    2.785869    -13.302703    -23.882092    0.000000    0.000000    -11.941047    0.000000    0.000000    -20.041945    0.146479    -4.389345    -40.074413    0.000000    0.000000    -20.037209    0.000000    0.000000    -27.973989    -3.735588    4.059038    -56.266739    0.000000    0.000000    -28.133371    0.000000    0.000000    -35.525616    -8.872272    12.189795    -72.949738    0.000000    0.000000    -36.474869    0.000000    0.000000    -4.799742    -2.703879    1.758803    98.979378    56.406696    -11.244623    -10.860607    -33.474022    1.246778    7.952404    -39.197052    -1.115323    0.076229    -0.416634    0.705001    0.000000    0.000000    0.000000    0.000000    0.000000    0.000000    11.126240    0.000000    -0.000000    22.252480    0.000000    -0.000000    11.126240    0.000000    -0.000000    18.645712    -1.012194    -2.046165    37.343784    0.000000    -0.000000    18.671894    0.000000    -0.000000    26.128696    -2.282849    -3.943387    52.435089    0.000000    -0.000000    26.217545    0.000000    -0.000000    33.800373    -3.838169    -5.710042    67.983719    0.000000    -0.000000    33.991859    0.000000    -0.000000    -3.076117    -2.474190    1.525816    1.364607    10.451896    5.744059    -0.639783    -7.038729    -6.295398    0.170471    0.518746    -0.357073    -0.820923    -3.400564    -0.414414    -0.942626    10.404724    -2.366482    2.527121    -7.033566    4.474549    -0.132692    -1.474216    0.059627    
0.753761    81.452904    116.472260    -0.121999    -0.368532    0.188992    0.028462    -0.334588    -0.077902    -1.358154    5.800199    0.041968    2.310441    -2.949019    2.221340    2.442212    -1.074810    2.250523    2.609904    2.506835    -11.575057    -85.589630    35.446754    -3.370616    11.732440    -2.624137    -2.296074    -3.462934    -28.410326    3.825939    -1.362751    2.349751    1.172879    -0.000000    0.000000    1.712733    -0.000000    0.000000    3.425466    -11.623429    2.794690    -13.334963    -23.900373    0.000000    0.000000    -11.950188    0.000000    0.000000    -20.028412    0.159674    -4.417880    -40.047737    0.000000    0.000000    -20.023867    0.000000    0.000000    -27.940075    -3.715546    4.036087    -56.195099    0.000000    0.000000    -28.097549    0.000000    0.000000    -35.470924    -8.843124    12.175082    -72.831779    0.000000    0.000000    -36.415890    0.000000    0.000000    -4.813768    -2.692804    1.738022    98.968048    56.388847    -11.246138    -10.837557    -33.562786    1.251650    7.983891    -39.231533    -1.118107    0.081150    -0.407201    0.693421    0.000000    0.000000    0.000000    0.000000    0.000000    0.000000    11.135173    0.000000    -0.000000    22.270346    0.000000    -0.000000    11.135173    0.000000    -0.000000    18.657322    -1.014382    -2.049284    37.367214    0.000000    -0.000000    18.683601    0.000000    -0.000000    26.142866    -2.287701    -3.949259    52.464077    0.000000    -0.000000    26.232037    0.000000    -0.000000    33.817047    -3.846192    -5.718303    68.018425    0.000000    -0.000000    34.009212    0.000000    -0.000000    -3.091528    -2.512455    1.449428    1.367129    10.579462    5.682342    -0.615002    -7.108467    -6.207729    0.170734    0.520373    -0.357515    -0.827538    -3.397449    -0.409571    -0.946968    10.466776    -2.404490    2.546692    -7.077258    4.461003    -0.132357    -1.470886    0.059437    
0.772960    81.450317    116.486267    -0.127210    -0.381630    0.243387    0.043261    -0.324896    -0.101844    -1.367211    5.785150    0.035411    2.323485    -2.939535    2.197485    2.457641    -1.027187    2.224600    2.606942    2.495465    -11.584908    -85.708374    35.504574    -3.375609    11.735146    -2.645849    -2.216352    -3.358653    -28.416294    3.894782    -1.376935    2.295353    1.086764    -0.000000    0.000000    1.617314    -0.000000    0.000000    3.234627    -11.620799    2.800190    -13.363243    -23.897800    0.000000    0.000000    -11.948900    0.000000    0.000000    -20.001823    0.173356    -4.446944    -39.994972    0.000000    0.000000    -19.997486    0.000000    0.000000    -27.890882    -3.690212    4.008852    -56.092136    0.000000    0.000000    -28.046074    0.000000    0.000000    -35.399609    -8.803002    12.152933    -72.677101    0.000000    0.000000    -36.338551    0.000000    0.000000    -4.826890    -2.681255    1.717879    98.954018    56.370823    -11.243238    -10.817760    -33.629246    1.251549    8.007473    -39.250973    -1.117999    0.084954    -0.402264    0.688165    0.000000    0.000000    0.000000    0.000000    0.000000    0.000000    11.139823    0.000000    -0.000000    22.279646    0.000000    -0.000000    11.139823    0.000000    -0.000000    18.664494    -1.015462    -2.050585    37.381638    0.000000    -0.000000    18.690815    0.000000    -0.000000    26.152491    -2.290104    -3.951654    52.483631    0.000000    -0.000000    26.241808    0.000000    -0.000000    33.829147    -3.850171    -5.721574    68.043251    0.000000    -0.000000    34.021622    0.000000    -0.000000    -3.104803    -2.551096    1.377838    1.368267    10.702864    5.616029    -0.590553    -7.175417    -6.121659    0.170890    0.522627    -0.357617    -0.833203    -3.395630    -0.403780    -0.950538    10.527237    -2.443318    2.565453    -7.119695    4.445571    -0.131991    -1.467316    0.059224    
0.791477    81.447998    116.500130    -0.132235    -0.392865    0.298782    0.055653    -0.317089    -0.122862    -1.373716    5.769963    0.027112    2.334608    -2.927229    2.169100    2.476163    -0.979510    2.193492    2.603328    2.491781    -11.587223    -85.813118    35.550526    -3.399478    11.727869    -2.659297    -2.134030    -3.256042    -28.429064    3.953151    -1.374829    2.251126    1.033882    -0.000000    0.000000    1.555470    -0.000000    0.000000    3.110939    -11.611585    2.803234    -13.387758    -23.881300    0.000000    0.000000    -11.940650    0.000000    0.000000    -19.966520    0.187095    -4.475585    -39.924778    0.000000    0.000000    -19.962391    0.000000    0.000000    -27.831457    -3.661591    3.979198    -55.968250    0.000000    0.000000    -27.984119    0.000000    0.000000    -35.317158    -8.755733    12.125926    -72.497879    0.000000    0.000000    -36.248947    0.000000    0.000000    -4.838362    -2.669024    1.698452    98.935616    56.350887    -11.233726    -10.802342    -33.664959    1.245965    8.018580    -39.254810    -1.115646    0.088211    -0.401554    0.689190    0.000000    0.000000    0.000000    0.000000    0.000000    0.000000    11.140283    0.000000    -0.000000    22.280565    0.000000    -0.000000    11.140283    0.000000    -0.000000    18.667162    -1.015263    -2.049744    37.386959    0.000000    -0.000000    18.693474    0.000000    -0.000000    26.157402    -2.289672    -3.949954    52.493336    0.000000    -0.000000    26.246666    0.000000    -0.000000    33.836395    -3.849454    -5.718965    68.057495    0.000000    -0.000000    34.028744    0.000000    -0.000000    -3.116336    -2.588799    1.312312    1.367646    10.819924    5.546390    -0.566607    -7.238734    -6.039398    0.171065    0.525443    -0.357693    -0.838815    -3.395055    -0.397549    -0.953030    10.586552    -2.481920    2.583064    -7.161420    4.427854    -0.131260    -1.463315    0.058472    
